<svg xmlns="http://www.w3.org/2000/svg" viewBox="0 0 512 512">
   <path fill="#335586"
      d="M261.7 360.73c2.21 50.03 4.89 99.37 7.8 149.06a6.87 6.87 0 0 1-7.8-6.11c-.99-11.52-2.62-22.46-3.37-33.98-1.87-26.59-3.15-54.05-4.78-80.7-.46-7.85-.46-15.47-.58-23.27-.11-4.36-.23-5.82-4.53-6.34a131.05 131.05 0 0 1-52.54-16.12 190.16 190.16 0 0 1-52.72-43.05 301.4 301.4 0 0 1-39.32-62.37 21.57 21.57 0 0 1-1.4-3.5c-.23-.87-.53-1.5-.76-3.66 72.38 3.2 119.39 38.7 150.8 101.65-2.03-24.2-2.43-46.38-2.6-70.58-.13-11.93-.47-21.24-.7-36.42 0-3.79.57-5.47-4.2-7.27-25.95-7.1-36.77-26.07-44.91-50.5-8.73-26.13-11.47-53.36-14.08-80.59-.18-1.86-.58-3.49-.76-5.47-.12-1.86-.46-4.48.7-5.58.76-.7 4.3.35 5.82 1.16 7.8 3.9 15.3 8.32 23.15 12.22 11.99 5.87 8.8 6.75 17.69-2.85 6.4-6.87 12.57-13.96 18.8-20.95 4.13-4.65 6.4-4.6 10.52.18 7.57 8.84 15.2 17.45 22.46 26.47 3.2 4.07 6.4 3.72 9.95 1.28l21.64-14.49c1.57-1.04 3.56-2.33 5.36-2.33 2.21-.34 2.04 4.31 1.92 6.4-.99 16.3-1.69 32.47-3.5 48.64a169.23 169.23 0 0 1-14.13 51.2c-7.27 15.71-18.27 27.93-34.8 34.5-1.97.59-1.91.65-4.82 1.05-4.66.7-6 2.97-5.82 7.22.4 20.48.17 41.3.4 61.73.12 13.73 0 27.52 1 41.54 12.45-29.96 33.5-51.78 60.68-67.84 26.59-15.65 54.8-27.11 87.97-27.58-1.86 5.59-3.08 9.55-4.48 13.44a216.65 216.65 0 0 1-37.82 64.24 153.27 153.27 0 0 1-42.12 35.49 104.97 104.97 0 0 1-54.98 13.61c-3.09 0-4.83.24-9.08.4m-87.8-327.15c8.38 0 13.38 5.41 13.38 13.5.06 6.8-5.05 11.7-12.21 11.64-7.57 0-13.38-5.59-13.38-12.74 0-6.93 5.06-12.4 12.21-12.4ZM343.27 49.7a12.04 12.04 0 0 1-11.75 12.45 13.32 13.32 0 0 1-12.91-13.38c0-6.52 5.4-11.64 12.1-11.81 7.04-.18 12.5 5.29 12.56 12.8Zm-75.75-34.85c0 6.16-5.3 11.63-11.4 11.75-7.33.17-13.73-5.76-13.62-12.63.12-6.05 6.05-11.75 12.22-11.87a12.52 12.52 0 0 1 12.8 12.8Zm0 0" />
</svg>
